<svg xmlns="http://www.w3.org/2000/svg" xmlns:xlink="http://www.w3.org/1999/xlink" width="276.679" height="78.013" viewBox="0 0 276.679 78.013">
  <defs>
    <clipPath id="clip-path">
      <rect id="Rectangle_13" data-name="Rectangle 13" width="276.679" height="78.012" fill="none"/>
    </clipPath>
  </defs>
  <g id="Groupe_4" data-name="Groupe 4" transform="translate(0 0)">
    <path id="Tracé_2" data-name="Tracé 2" d="M0,0V78.012H261.261L276.679,0Z" fill="#fff"/>
    <g id="Groupe_3" data-name="Groupe 3" transform="translate(0 0)">
      <g id="Groupe_2" data-name="Groupe 2" transform="translate(0 0)" clip-path="url(#clip-path)">
        <path id="Tracé_3" data-name="Tracé 3" d="M30.429,40.088a1.418,1.418,0,0,1-1.388-1.716l.826-3.876L27.678,39.26a1.421,1.421,0,0,1-1.291.827H20.4a1.421,1.421,0,0,1-1.42-1.42V36.407l-.538,2.553a1.422,1.422,0,0,1-1.39,1.129h-5.63a1.423,1.423,0,0,1-1.39-1.714l5-23.642a1.419,1.419,0,0,1,1.39-1.127H24.8a1.421,1.421,0,0,1,1.42,1.42V25.613l5.149-11.18a1.421,1.421,0,0,1,1.29-.828h8.506a1.419,1.419,0,0,1,1.388,1.717L37.492,38.965A1.419,1.419,0,0,1,36.1,40.088Z" transform="translate(8.942 12.158)" fill="#0090df"/>
        <path id="Tracé_4" data-name="Tracé 4" d="M41.836,15.7h.009m-.009,0L36.774,39.339H31.1l1.892-8.879q.534-2.474.937-4.058c.271-1.057.49-1.9.668-2.53s.307-1.13.383-1.5h-.129L27.057,39.339H21.073V22.376h-.129q-.258,1.664-.5,3.16c-.161,1-.318,1.922-.462,2.774s-.286,1.632-.426,2.344l-1.827,8.684H12.1l5-23.642h8.375V32.482H25.6L33.33,15.7h8.506m.009-2.84H33.33a2.841,2.841,0,0,0-2.579,1.653L28.312,19.8V15.7a2.84,2.84,0,0,0-2.84-2.84H17.1a2.841,2.841,0,0,0-2.78,2.253l-5,23.64A2.841,2.841,0,0,0,12.1,42.179h5.63a2.84,2.84,0,0,0,1.674-.545,2.822,2.822,0,0,0,1.672.545h5.984a2.837,2.837,0,0,0,2.02-.846,2.847,2.847,0,0,0,2.022.846h5.675a2.841,2.841,0,0,0,2.778-2.246l5.026-23.477a2.8,2.8,0,0,0,.1-.759,2.838,2.838,0,0,0-2.837-2.84m-.009,5.681h0Z" transform="translate(8.272 11.489)" fill="#161b4b"/>
        <path id="Tracé_5" data-name="Tracé 5" d="M41.54,37.577a1.421,1.421,0,0,1-1.411-1.24L37.785,18.016a1.419,1.419,0,0,1,1.409-1.6h6.228a1.42,1.42,0,0,1,1.418,1.367l.2,5.338,2.685-5.876a1.42,1.42,0,0,1,1.291-.829h6.7a1.418,1.418,0,0,1,1.248,2.094L49.064,36.831a1.423,1.423,0,0,1-1.25.746Z" transform="translate(33.755 14.669)" fill="#0090df"/>
        <path id="Tracé_6" data-name="Tracé 6" d="M58.379,18.506l-9.9,18.321H42.21L39.864,18.506H46.09l.339,9.216c.011.28.019.566.025.858s0,.568-.008.833-.027.515-.049.752h.131a6.9,6.9,0,0,1,.225-.72c.1-.265.2-.528.307-.793s.206-.487.292-.67l4.334-9.476Zm0-2.84H51.685A2.839,2.839,0,0,0,49.1,17.325l-.246.536a2.842,2.842,0,0,0-2.767-2.195H39.864a2.838,2.838,0,0,0-2.816,3.2l2.344,18.322a2.841,2.841,0,0,0,2.818,2.479h6.273a2.841,2.841,0,0,0,2.5-1.49l9.9-18.321a2.842,2.842,0,0,0-2.5-4.191m0,5.681h0Z" transform="translate(33.085 13.999)" fill="#161b4b"/>
        <path id="Tracé_7" data-name="Tracé 7" d="M48.152,41.072a1.418,1.418,0,0,1-1.39-1.714l3.865-18.321a1.421,1.421,0,0,1,1.39-1.127h.39a3.416,3.416,0,0,1-1.051-2.606,5.047,5.047,0,0,1,.629-2.566,4.223,4.223,0,0,1,1.871-1.71,5.973,5.973,0,0,1,2.575-.525,5.791,5.791,0,0,1,2.85.687,3.274,3.274,0,0,1,1.644,3.013,4.783,4.783,0,0,1-1.284,3.431,3.87,3.87,0,0,1-.574.494,1.433,1.433,0,0,1,.345.307,1.415,1.415,0,0,1,.284,1.189L55.8,39.947a1.419,1.419,0,0,1-1.388,1.125Z" transform="translate(41.76 11.174)" fill="#0090df"/>
        <path id="Tracé_8" data-name="Tracé 8" d="M57.1,14.6a4.364,4.364,0,0,1,2.159.509,1.854,1.854,0,0,1,.915,1.771,3.4,3.4,0,0,1-.89,2.45,3.646,3.646,0,0,1-2.748.93,4.364,4.364,0,0,1-2.208-.509,1.875,1.875,0,0,1-.881-1.771,3.632,3.632,0,0,1,.436-1.852,2.8,2.8,0,0,1,1.254-1.14A4.528,4.528,0,0,1,57.1,14.6M58.977,22l-3.9,18.321H48.822L52.687,22h6.291M57.1,11.755a7.377,7.377,0,0,0-3.183.663,5.611,5.611,0,0,0-2.49,2.28,6.425,6.425,0,0,0-.82,3.278,5.442,5.442,0,0,0,.292,1.818,2.85,2.85,0,0,0-.992,1.621L46.044,39.735a2.839,2.839,0,0,0,2.778,3.427H55.08a2.839,2.839,0,0,0,2.778-2.25l3.9-18.321a2.827,2.827,0,0,0-.133-1.625,6.3,6.3,0,0,0,1.392-4.092,4.691,4.691,0,0,0-2.371-4.251,7.174,7.174,0,0,0-3.543-.869m1.877,13.087h0Z" transform="translate(41.09 10.504)" fill="#161b4b"/>
        <path id="Tracé_9" data-name="Tracé 9" d="M61.605,38.054A9.6,9.6,0,0,1,57,37.008a7.3,7.3,0,0,1-3.049-3.088,9.7,9.7,0,0,1-1.011-4.531,16.416,16.416,0,0,1,.7-4.762,12.941,12.941,0,0,1,2.181-4.23,10.734,10.734,0,0,1,3.766-3.034,11.823,11.823,0,0,1,5.266-1.117,9.013,9.013,0,0,1,5.726,1.7,5.945,5.945,0,0,1,2.293,4.817,7.837,7.837,0,0,1-.718,3.361,7.021,7.021,0,0,1-2.229,2.664,8.3,8.3,0,0,1-.727.477c.049.023.1.049.142.076a1.424,1.424,0,0,1,.685,1.216v4.431a1.416,1.416,0,0,1-.78,1.267,18.974,18.974,0,0,1-3.285,1.293,15.986,15.986,0,0,1-4.357.509M64.05,23.338a.731.731,0,0,0-.269.174,2.638,2.638,0,0,0-.333.371,1.163,1.163,0,0,0,.513-.379,1.03,1.03,0,0,0,.089-.167" transform="translate(47.307 14.516)" fill="#0090df"/>
        <path id="Tracé_10" data-name="Tracé 10" d="M65.525,18.335a7.615,7.615,0,0,1,4.844,1.39,4.492,4.492,0,0,1,1.753,3.7,6.4,6.4,0,0,1-.581,2.757,5.6,5.6,0,0,1-1.788,2.127,8.791,8.791,0,0,1-3.064,1.365,17.931,17.931,0,0,1-4.414.477h-.954v.259a2.281,2.281,0,0,0,.663,1.81,2.936,2.936,0,0,0,1.988.583,8.179,8.179,0,0,0,2.636-.42,18.8,18.8,0,0,0,2.668-1.165v4.431a17.531,17.531,0,0,1-3.039,1.2,14.594,14.594,0,0,1-3.961.453,8.174,8.174,0,0,1-3.929-.873,5.874,5.874,0,0,1-2.467-2.5,8.259,8.259,0,0,1-.848-3.872,14.871,14.871,0,0,1,.638-4.35,11.507,11.507,0,0,1,1.941-3.768A9.319,9.319,0,0,1,60.883,19.3a10.424,10.424,0,0,1,4.641-.97m-3.573,7.908h.468a5.515,5.515,0,0,0,2.233-.373,2.6,2.6,0,0,0,1.18-.937,2.113,2.113,0,0,0,.356-1.132,1.249,1.249,0,0,0-.324-.873,1.338,1.338,0,0,0-1.034-.356,1.947,1.947,0,0,0-1.343.566,4.575,4.575,0,0,0-1.019,1.415,5.724,5.724,0,0,0-.517,1.691m3.573-10.748a13.259,13.259,0,0,0-5.895,1.261,12.16,12.16,0,0,0-4.259,3.437,14.363,14.363,0,0,0-2.42,4.69,17.775,17.775,0,0,0-.761,5.175,11.089,11.089,0,0,0,1.172,5.188A8.671,8.671,0,0,0,57,38.928a10.988,10.988,0,0,0,5.279,1.216,17.2,17.2,0,0,0,4.749-.564,20.444,20.444,0,0,0,3.533-1.392,2.839,2.839,0,0,0,1.558-2.534V31.223a2.844,2.844,0,0,0-.186-1.013A8.312,8.312,0,0,0,74.11,27.4a9.237,9.237,0,0,0,.852-3.967A7.315,7.315,0,0,0,72.131,17.5a10.36,10.36,0,0,0-6.607-2.005" transform="translate(46.637 13.846)" fill="#161b4b"/>
        <path id="Tracé_11" data-name="Tracé 11" d="M78.079,40.587a10.248,10.248,0,0,1-7.434-2.772c-1.9-1.848-2.863-4.567-2.863-8.076a19.824,19.824,0,0,1,.583-4.8,17.238,17.238,0,0,1,1.782-4.435,14.461,14.461,0,0,1,3.037-3.691A13.559,13.559,0,0,1,77.515,14.3a16.271,16.271,0,0,1,5.544-.894,18.783,18.783,0,0,1,4.249.473A13.039,13.039,0,0,1,91.03,15.34a1.421,1.421,0,0,1,.557,1.831l-2.378,5a1.421,1.421,0,0,1-2,.615,11.05,11.05,0,0,0-2.011-.907,6.821,6.821,0,0,0-2.217-.352,4.687,4.687,0,0,0-2.691.71A5.9,5.9,0,0,0,78.774,23.7a1.392,1.392,0,0,1,.566-.119H89.2a1.423,1.423,0,0,1,1.39,1.714l-2.7,12.854a1.416,1.416,0,0,1-.952,1.059,31.474,31.474,0,0,1-3.912.977,27.444,27.444,0,0,1-4.95.4M77.1,30.761a3.546,3.546,0,0,0,.2.776,1.39,1.39,0,0,0,.551.706,2.2,2.2,0,0,0,1.127.248,7.285,7.285,0,0,0,.894-.045l.078-.011.239-1.081H78.257a1.425,1.425,0,0,1-1.108-.53c-.017-.021-.032-.042-.047-.062m.619-5.01a10.3,10.3,0,0,0-.354,1.18,13.767,13.767,0,0,0-.3,1.78Z" transform="translate(60.57 11.983)" fill="#0090df"/>
        <path id="Tracé_12" data-name="Tracé 12" d="M83.73,15.5a17.246,17.246,0,0,1,3.929.437,11.524,11.524,0,0,1,3.316,1.293l-2.378,5a12.446,12.446,0,0,0-2.27-1.026,8.224,8.224,0,0,0-2.678-.428,6.091,6.091,0,0,0-3.484.954,7.335,7.335,0,0,0-2.272,2.433,11.316,11.316,0,0,0-1.237,3.121,13.484,13.484,0,0,0-.381,3.032,6.5,6.5,0,0,0,.388,2.433,2.785,2.785,0,0,0,1.14,1.392,3.6,3.6,0,0,0,1.852.443,8.833,8.833,0,0,0,1.076-.055q.429-.057,1.076-.17L82.63,30.6h-3.7l1.083-4.933h9.864l-2.7,12.856a29.909,29.909,0,0,1-3.736.93,25.73,25.73,0,0,1-4.689.381,8.844,8.844,0,0,1-6.444-2.369q-2.434-2.369-2.433-7.059a18.327,18.327,0,0,1,.542-4.454,15.7,15.7,0,0,1,1.632-4.067,13.072,13.072,0,0,1,2.742-3.331,12.1,12.1,0,0,1,3.88-2.248A14.785,14.785,0,0,1,83.73,15.5m0-2.84a17.677,17.677,0,0,0-6.029.979,14.943,14.943,0,0,0-4.779,2.778,15.922,15.922,0,0,0-3.335,4.05,18.662,18.662,0,0,0-1.93,4.8,21.325,21.325,0,0,0-.625,5.141c0,3.908,1.108,6.967,3.293,9.095a11.619,11.619,0,0,0,8.425,3.174,28.723,28.723,0,0,0,5.209-.428,32.83,32.83,0,0,0,4.09-1.021,2.84,2.84,0,0,0,1.9-2.119l2.7-12.854a2.845,2.845,0,0,0-.574-2.375,2.813,2.813,0,0,0-.8-.68l2.261-4.751a2.84,2.84,0,0,0-1.112-3.66A14.4,14.4,0,0,0,88.3,13.171a20.2,20.2,0,0,0-4.573-.511" transform="translate(59.899 11.313)" fill="#161b4b"/>
        <path id="Tracé_13" data-name="Tracé 13" d="M86.18,37.9a6.291,6.291,0,0,1-3.552-.951,5.606,5.606,0,0,1-2.089-2.518,8,8,0,0,1-.614-3.141,17.258,17.258,0,0,1,.123-2.051q.119-1.025.311-1.943l2.055-9.754a1.421,1.421,0,0,1,1.39-1.127h6.258a1.42,1.42,0,0,1,1.39,1.71L89.365,28.1c-.064.286-.127.612-.189,1.006a6.222,6.222,0,0,0-.083.782,3.672,3.672,0,0,0,.678-1.064,11.055,11.055,0,0,0,.727-2.371l1.877-8.911a1.422,1.422,0,0,1,1.39-1.129h6.258a1.418,1.418,0,0,1,1.39,1.714L97.547,36.45a1.419,1.419,0,0,1-1.39,1.127H91.145a1.422,1.422,0,0,1-1.045-.458,1.142,1.142,0,0,1-.127-.159,6.031,6.031,0,0,1-1.282.583,8.275,8.275,0,0,1-2.511.358" transform="translate(71.421 14.669)" fill="#0090df"/>
        <path id="Tracé_14" data-name="Tracé 14" d="M100.692,18.506h.009m-.009,0L96.827,36.827H91.815l.21-2.554H91.9a6.655,6.655,0,0,1-1.327,1.657,4.548,4.548,0,0,1-1.64.93,6.817,6.817,0,0,1-2.079.292,4.891,4.891,0,0,1-2.765-.712,4.181,4.181,0,0,1-1.568-1.892,6.536,6.536,0,0,1-.5-2.587,16.061,16.061,0,0,1,.114-1.884q.114-.963.292-1.82l2.053-9.75h6.258l-2.087,9.977q-.1.42-.2,1.066a7.6,7.6,0,0,0-.1,1.214,1.381,1.381,0,0,0,.364,1.043,1.21,1.21,0,0,0,.865.347,1.682,1.682,0,0,0,1.108-.5A4.881,4.881,0,0,0,91.726,30.1a12.326,12.326,0,0,0,.833-2.685l1.875-8.909h6.258m-9.96,0h.009m9.96-2.84H94.434a2.837,2.837,0,0,0-1.848.684,2.817,2.817,0,0,0-1.844-.684H84.473a2.841,2.841,0,0,0-2.78,2.255l-2.053,9.75c-.136.657-.248,1.352-.333,2.073a19.223,19.223,0,0,0-.133,2.216,9.4,9.4,0,0,0,.727,3.7A7,7,0,0,0,82.51,38.8a7.676,7.676,0,0,0,4.34,1.189,9.7,9.7,0,0,0,2.941-.426c.225-.072.447-.153.663-.246a2.822,2.822,0,0,0,1.361.348h5.012a2.841,2.841,0,0,0,2.78-2.253l3.829-18.158a2.8,2.8,0,0,0,.1-.75,2.838,2.838,0,0,0-2.837-2.84m-.009,5.681h0Z" transform="translate(70.75 13.999)" fill="#161b4b"/>
        <path id="Tracé_15" data-name="Tracé 15" d="M99.366,38.054a9.6,9.6,0,0,1-4.605-1.045,7.273,7.273,0,0,1-3.049-3.09A9.689,9.689,0,0,1,90.7,29.388a16.378,16.378,0,0,1,.7-4.762,12.929,12.929,0,0,1,2.18-4.228,10.742,10.742,0,0,1,3.768-3.037,11.842,11.842,0,0,1,5.266-1.115,9.013,9.013,0,0,1,5.726,1.7,5.941,5.941,0,0,1,2.291,4.817,7.843,7.843,0,0,1-.716,3.361,7.04,7.04,0,0,1-2.229,2.664,8.064,8.064,0,0,1-.729.477c.049.023.1.049.144.076a1.426,1.426,0,0,1,.684,1.216v4.431a1.418,1.418,0,0,1-.778,1.267,19.127,19.127,0,0,1-3.285,1.293,15.986,15.986,0,0,1-4.357.509m2.445-14.715a.758.758,0,0,0-.269.174,2.646,2.646,0,0,0-.335.371,1.28,1.28,0,0,0,.513-.375,1.267,1.267,0,0,0,.091-.17" transform="translate(81.05 14.516)" fill="#0090df"/>
        <path id="Tracé_16" data-name="Tracé 16" d="M103.286,18.335a7.615,7.615,0,0,1,4.844,1.39,4.492,4.492,0,0,1,1.753,3.7,6.4,6.4,0,0,1-.581,2.757,5.6,5.6,0,0,1-1.788,2.127,8.79,8.79,0,0,1-3.064,1.365,17.931,17.931,0,0,1-4.414.477h-.954v.259a2.281,2.281,0,0,0,.663,1.81,2.936,2.936,0,0,0,1.988.583,8.179,8.179,0,0,0,2.636-.42,18.8,18.8,0,0,0,2.668-1.165v4.431a17.53,17.53,0,0,1-3.039,1.2,14.594,14.594,0,0,1-3.961.453,8.179,8.179,0,0,1-3.929-.873,5.874,5.874,0,0,1-2.467-2.5,8.259,8.259,0,0,1-.848-3.872,14.871,14.871,0,0,1,.638-4.35,11.507,11.507,0,0,1,1.941-3.768A9.318,9.318,0,0,1,98.644,19.3a10.424,10.424,0,0,1,4.641-.97m-3.573,7.908h.468a5.515,5.515,0,0,0,2.233-.373,2.6,2.6,0,0,0,1.18-.937,2.113,2.113,0,0,0,.356-1.132,1.249,1.249,0,0,0-.324-.873,1.338,1.338,0,0,0-1.034-.356,1.947,1.947,0,0,0-1.343.566,4.575,4.575,0,0,0-1.019,1.415,5.724,5.724,0,0,0-.517,1.691m3.573-10.748a13.259,13.259,0,0,0-5.895,1.261,12.161,12.161,0,0,0-4.259,3.437,14.363,14.363,0,0,0-2.42,4.69,17.775,17.775,0,0,0-.761,5.175,11.089,11.089,0,0,0,1.172,5.188,8.671,8.671,0,0,0,3.634,3.681,10.988,10.988,0,0,0,5.279,1.216,17.2,17.2,0,0,0,4.749-.564,20.445,20.445,0,0,0,3.533-1.392,2.839,2.839,0,0,0,1.558-2.534V31.223a2.844,2.844,0,0,0-.186-1.013,8.312,8.312,0,0,0,2.18-2.814,9.237,9.237,0,0,0,.852-3.967,7.315,7.315,0,0,0-2.831-5.929,10.36,10.36,0,0,0-6.607-2.005" transform="translate(80.38 13.846)" fill="#161b4b"/>
        <path id="Tracé_17" data-name="Tracé 17" d="M107.553,38.054a20.107,20.107,0,0,1-3.511-.28,11.628,11.628,0,0,1-2.848-.873,1.418,1.418,0,0,1-.818-1.286V30.585a1.417,1.417,0,0,1,.695-1.219,1.4,1.4,0,0,1,.725-.2,1.415,1.415,0,0,1,.678.172,10.721,10.721,0,0,0,2.435,1,9.168,9.168,0,0,0,2.24.28q.156,0,.341-.017c-.324-.214-.773-.479-1.35-.8a9.6,9.6,0,0,1-2.189-1.627,6.233,6.233,0,0,1-1.388-2.144,7.251,7.251,0,0,1-.441-2.585,7.061,7.061,0,0,1,1.023-3.782,6.724,6.724,0,0,1,3.123-2.583,12.1,12.1,0,0,1,4.795-.845,13.506,13.506,0,0,1,3.689.483A13,13,0,0,1,118,18.171a1.421,1.421,0,0,1,.534,1.824l-1.956,4.075a1.422,1.422,0,0,1-2.064.57l-.017-.011a7.763,7.763,0,0,1,.6.523,6.444,6.444,0,0,1,2.024,4.8,7.933,7.933,0,0,1-1.248,4.541,7.418,7.418,0,0,1-3.479,2.731,13.127,13.127,0,0,1-4.844.827" transform="translate(89.695 14.516)" fill="#0090df"/>
        <path id="Tracé_18" data-name="Tracé 18" d="M111.733,18.335a11.992,11.992,0,0,1,3.3.428,11.537,11.537,0,0,1,2.9,1.286l-1.958,4.075a11.226,11.226,0,0,0-2.06-1.059A5.772,5.772,0,0,0,111.8,22.6a1.363,1.363,0,0,0-.9.276,1.011,1.011,0,0,0-.331.824.868.868,0,0,0,.218.566,2.472,2.472,0,0,0,.7.525c.324.178.738.4,1.244.655a7.989,7.989,0,0,1,2.047,1.392,5.026,5.026,0,0,1,1.593,3.783,6.533,6.533,0,0,1-1,3.744,5.983,5.983,0,0,1-2.829,2.206,11.6,11.6,0,0,1-4.317.729,18.467,18.467,0,0,1-3.259-.259,10.133,10.133,0,0,1-2.5-.759V31.255a12.068,12.068,0,0,0,2.765,1.132,10.49,10.49,0,0,0,2.587.324,6.52,6.52,0,0,0,.907-.074,2.315,2.315,0,0,0,.905-.314.818.818,0,0,0,.388-.744,1.339,1.339,0,0,0-.17-.672,2.4,2.4,0,0,0-.7-.678,17.877,17.877,0,0,0-1.649-.994,8.05,8.05,0,0,1-1.86-1.375,4.765,4.765,0,0,1-1.076-1.659,5.778,5.778,0,0,1-.348-2.077,5.637,5.637,0,0,1,.809-3.032,5.3,5.3,0,0,1,2.483-2.03,10.66,10.66,0,0,1,4.228-.727m0-2.84a13.261,13.261,0,0,0-5.361.964,8.088,8.088,0,0,0-3.763,3.136,8.445,8.445,0,0,0-1.237,4.529,8.654,8.654,0,0,0,.534,3.088,7.429,7.429,0,0,0,.587,1.2h-.027a2.841,2.841,0,0,0-2.84,2.84v5.029a2.839,2.839,0,0,0,1.632,2.57,13.006,13.006,0,0,0,3.2.985,21.293,21.293,0,0,0,3.764.3,14.489,14.489,0,0,0,5.368-.93,8.8,8.8,0,0,0,4.13-3.253,9.321,9.321,0,0,0,1.492-5.336,8.1,8.1,0,0,0-.621-3.176,7.593,7.593,0,0,0-.676-1.257,2.847,2.847,0,0,0,.614-.839l1.956-4.075a2.842,2.842,0,0,0-1.07-3.647,14.481,14.481,0,0,0-3.607-1.6,14.842,14.842,0,0,0-4.077-.538" transform="translate(89.026 13.846)" fill="#161b4b"/>
        <path id="Tracé_19" data-name="Tracé 19" d="M116.332,38.054a20.107,20.107,0,0,1-3.511-.28,11.644,11.644,0,0,1-2.85-.873,1.421,1.421,0,0,1-.816-1.286V30.585a1.417,1.417,0,0,1,.695-1.219,1.415,1.415,0,0,1,1.4-.028,10.773,10.773,0,0,0,2.435,1,9.152,9.152,0,0,0,2.238.28c.1,0,.22-.006.343-.017q-.483-.321-1.35-.8a9.542,9.542,0,0,1-2.191-1.627,6.207,6.207,0,0,1-1.386-2.145,7.211,7.211,0,0,1-.441-2.583,7.056,7.056,0,0,1,1.023-3.782,6.727,6.727,0,0,1,3.121-2.581,12.083,12.083,0,0,1,4.8-.846,13.492,13.492,0,0,1,3.687.483,13,13,0,0,1,3.251,1.443,1.42,1.42,0,0,1,.536,1.824l-1.956,4.075a1.427,1.427,0,0,1-.9.754,1.451,1.451,0,0,1-.381.051,1.418,1.418,0,0,1-.782-.235l-.021-.013a7.425,7.425,0,0,1,.6.525,6.63,6.63,0,0,1,1.517,2.181,6.7,6.7,0,0,1,.509,2.623,7.939,7.939,0,0,1-1.248,4.541,7.409,7.409,0,0,1-3.48,2.731,13.11,13.11,0,0,1-4.842.827" transform="translate(97.54 14.516)" fill="#0090df"/>
        <path id="Tracé_20" data-name="Tracé 20" d="M120.511,18.335a11.992,11.992,0,0,1,3.3.428,11.537,11.537,0,0,1,2.9,1.286l-1.958,4.075a11.225,11.225,0,0,0-2.06-1.059,5.772,5.772,0,0,0-2.111-.462,1.363,1.363,0,0,0-.9.276,1.011,1.011,0,0,0-.331.824.868.868,0,0,0,.218.566,2.472,2.472,0,0,0,.7.525c.324.178.739.4,1.244.655a7.988,7.988,0,0,1,2.047,1.392,5.026,5.026,0,0,1,1.593,3.783,6.533,6.533,0,0,1-1,3.744,5.983,5.983,0,0,1-2.829,2.206A11.6,11.6,0,0,1,117,37.3a18.467,18.467,0,0,1-3.259-.259,10.133,10.133,0,0,1-2.5-.759V31.255a12.066,12.066,0,0,0,2.765,1.132,10.49,10.49,0,0,0,2.587.324,6.52,6.52,0,0,0,.907-.074,2.315,2.315,0,0,0,.905-.314.818.818,0,0,0,.388-.744,1.339,1.339,0,0,0-.17-.672,2.4,2.4,0,0,0-.7-.678,17.876,17.876,0,0,0-1.649-.994,8.05,8.05,0,0,1-1.859-1.375A4.765,4.765,0,0,1,113.34,26.2a5.778,5.778,0,0,1-.348-2.077,5.636,5.636,0,0,1,.809-3.032,5.3,5.3,0,0,1,2.482-2.03,10.66,10.66,0,0,1,4.228-.727m0-2.84a13.261,13.261,0,0,0-5.361.964,8.088,8.088,0,0,0-3.763,3.136,8.445,8.445,0,0,0-1.237,4.529,8.654,8.654,0,0,0,.534,3.088,7.432,7.432,0,0,0,.587,1.2h-.026a2.841,2.841,0,0,0-2.84,2.84v5.029a2.839,2.839,0,0,0,1.632,2.57,13.005,13.005,0,0,0,3.2.985,21.293,21.293,0,0,0,3.764.3,14.489,14.489,0,0,0,5.368-.93,8.8,8.8,0,0,0,4.13-3.253,9.322,9.322,0,0,0,1.492-5.336,8.1,8.1,0,0,0-.621-3.176,7.6,7.6,0,0,0-.676-1.257,2.847,2.847,0,0,0,.614-.839l1.956-4.075a2.842,2.842,0,0,0-1.07-3.647,14.481,14.481,0,0,0-3.607-1.6,14.842,14.842,0,0,0-4.077-.538" transform="translate(96.87 13.846)" fill="#161b4b"/>
        <path id="Tracé_21" data-name="Tracé 21" d="M119.285,37.73a1.418,1.418,0,0,1-1.39-1.714L121.76,17.7a1.421,1.421,0,0,1,1.39-1.127h5a1.418,1.418,0,0,1,1.049.464,1.446,1.446,0,0,1,.2.288,5.808,5.808,0,0,1,1.458-.7,9.126,9.126,0,0,1,3.518-.328,3.887,3.887,0,0,1,.848.155,1.417,1.417,0,0,1,.937,1.651L134.8,24.291a1.424,1.424,0,0,1-.727.952,1.4,1.4,0,0,1-.661.165,1.418,1.418,0,0,1-.534-.1,3.559,3.559,0,0,0-.621-.176,4.258,4.258,0,0,0-.833-.076,2.513,2.513,0,0,0-.877.148,1.775,1.775,0,0,0-.65.43,3.493,3.493,0,0,0-.651,1.013,9.748,9.748,0,0,0-.608,1.922l-1.712,8.04a1.42,1.42,0,0,1-1.388,1.125Z" transform="translate(105.324 14.516)" fill="#0090df"/>
        <path id="Tracé_22" data-name="Tracé 22" d="M134.153,18.335c.237,0,.489.013.752.04a3.073,3.073,0,0,1,.542.089l-1.358,6.194a4.957,4.957,0,0,0-.873-.25A5.6,5.6,0,0,0,132.1,24.3a3.914,3.914,0,0,0-1.367.235,3.183,3.183,0,0,0-1.165.759,4.865,4.865,0,0,0-.937,1.424,11.188,11.188,0,0,0-.7,2.206l-1.714,8.053h-6.258l3.865-18.321h5l-.292,3.056h.131a8.881,8.881,0,0,1,1.551-2.03,4.63,4.63,0,0,1,1.755-1.043,7.2,7.2,0,0,1,2.191-.307m-5.336.324h.009m5.327-3.164a10.035,10.035,0,0,0-3.054.441,7.565,7.565,0,0,0-.786.3,2.817,2.817,0,0,0-1.486-.42H123.82a2.838,2.838,0,0,0-2.778,2.253l-3.865,18.321a2.839,2.839,0,0,0,2.778,3.427h6.258a2.839,2.839,0,0,0,2.778-2.25l1.714-8.052a8.416,8.416,0,0,1,.508-1.613,2.1,2.1,0,0,1,.365-.6.451.451,0,0,1,.134-.1,1.086,1.086,0,0,1,.388-.061,2.775,2.775,0,0,1,.549.049,2.317,2.317,0,0,1,.364.095,2.84,2.84,0,0,0,3.85-2.02l1.358-6.192a2.841,2.841,0,0,0-1.875-3.3,5.335,5.335,0,0,0-1.153-.22,10.083,10.083,0,0,0-1.04-.055" transform="translate(104.654 13.846)" fill="#161b4b"/>
        <path id="Tracé_23" data-name="Tracé 23" d="M37.229,44.514c-4.4,0-11.517-11.782-11.517-17.5a11.516,11.516,0,1,1,23.032,0c0,5.876-7,17.5-11.515,17.5m0-21.176a2.907,2.907,0,1,0,2.907,2.907,2.91,2.91,0,0,0-2.907-2.907" transform="translate(22.976 13.844)" fill="#0090df"/>
        <path id="Tracé_24" data-name="Tracé 24" d="M37.9,17.584A10.1,10.1,0,0,1,47.993,27.679c0,5.575-6.737,16.084-10.095,16.084-3.03,0-10.095-10.509-10.095-16.084A10.1,10.1,0,0,1,37.9,17.584m0,13.657a4.327,4.327,0,1,0-4.327-4.327A4.327,4.327,0,0,0,37.9,31.241m0-16.5A12.949,12.949,0,0,0,24.963,27.679c0,5.94,7.381,18.925,12.935,18.925,5.688,0,12.935-12.829,12.935-18.925A12.949,12.949,0,0,0,37.9,14.744m0,13.657a1.486,1.486,0,1,1,1.486-1.486A1.488,1.488,0,0,1,37.9,28.4" transform="translate(22.307 13.175)" fill="#161b4b"/>
      </g>
    </g>
  </g>
</svg>
