<svg xmlns="http://www.w3.org/2000/svg" xmlns:xlink="http://www.w3.org/1999/xlink" width="255.353" height="72" viewBox="0 0 255.353 72">
  <defs>
    <clipPath id="clip-path">
      <rect id="Rectangle_15" data-name="Rectangle 15" width="255.353" height="71.999" fill="none"/>
    </clipPath>
  </defs>
  <g id="Groupe_10" data-name="Groupe 10" transform="translate(0 0)">
    <path id="Tracé_47" data-name="Tracé 47" d="M0,0V72H255.353L242.8,37,255.353,0Z" fill="#161b4b"/>
    <g id="Groupe_9" data-name="Groupe 9" transform="translate(0 0)">
      <g id="Groupe_8" data-name="Groupe 8" transform="translate(0 0)" clip-path="url(#clip-path)">
        <path id="Tracé_48" data-name="Tracé 48" d="M12.034,36.175l4.612-21.819h7.732V29.847H24.5L31.63,14.356h7.85L34.809,36.175H29.57l1.748-8.193q.49-2.283.865-3.745T32.8,21.9c.164-.582.283-1.042.353-1.381h-.119L25.84,36.175H20.318V20.52H20.2q-.239,1.539-.463,2.919c-.149.919-.294,1.772-.428,2.559s-.264,1.508-.393,2.164l-1.686,8.015Z" transform="translate(8.997 10.733)" fill="#0090df"/>
        <path id="Tracé_49" data-name="Tracé 49" d="M40.6,15.478h.009m-.009,0L35.931,37.3H30.693L32.439,29.1q.493-2.283.865-3.745c.25-.975.453-1.753.617-2.335s.283-1.043.353-1.381h-.119L26.962,37.3H21.439V21.642H21.32q-.239,1.536-.463,2.917c-.149.921-.294,1.774-.426,2.56s-.264,1.506-.393,2.164L18.351,37.3h-5.2l4.614-21.819H25.5V30.97h.119l7.134-15.491H40.6m.009-2.621H32.752a2.622,2.622,0,0,0-2.38,1.526L28.12,19.269V15.478A2.621,2.621,0,0,0,25.5,12.857h-7.73a2.622,2.622,0,0,0-2.566,2.08L10.591,36.754a2.622,2.622,0,0,0,2.564,3.165h5.2a2.621,2.621,0,0,0,1.545-.5,2.6,2.6,0,0,0,1.543.5h5.523a2.618,2.618,0,0,0,1.865-.781,2.628,2.628,0,0,0,1.866.781h5.238a2.622,2.622,0,0,0,2.564-2.073l4.638-21.667a2.58,2.58,0,0,0,.1-.7,2.619,2.619,0,0,0-2.618-2.621M40.6,18.1h0Z" transform="translate(7.876 9.612)" fill="#fff"/>
        <path id="Tracé_50" data-name="Tracé 50" d="M41.965,34.074,39.8,17.166h5.745l.315,8.506c.009.259.017.523.023.792s0,.524-.009.769-.024.475-.044.694h.119a6.009,6.009,0,0,1,.21-.664c.089-.245.184-.488.283-.732s.189-.449.269-.619l4-8.745h6.178L47.755,34.074Z" transform="translate(29.757 12.834)" fill="#0090df"/>
        <path id="Tracé_51" data-name="Tracé 51" d="M58.01,18.287,48.877,35.2h-5.79L40.922,18.287h5.746l.313,8.506c.01.259.017.523.023.792s0,.524-.007.769-.024.475-.045.694h.121a6.365,6.365,0,0,1,.208-.664c.089-.245.185-.488.283-.732s.19-.449.269-.619l4-8.745Zm0-2.621H51.832A2.62,2.62,0,0,0,49.449,17.2l-.227.495a2.623,2.623,0,0,0-2.553-2.026H40.922a2.619,2.619,0,0,0-2.6,2.954l2.164,16.908a2.622,2.622,0,0,0,2.6,2.289h5.79a2.622,2.622,0,0,0,2.307-1.375l9.133-16.908a2.623,2.623,0,0,0-2.307-3.868m0,5.243h0Z" transform="translate(28.636 11.713)" fill="#fff"/>
        <path id="Tracé_52" data-name="Tracé 52" d="M48.759,37,52.326,20.09h5.8L54.533,37Zm7.118-18.52a4.032,4.032,0,0,1-2.038-.47,1.729,1.729,0,0,1-.813-1.634,3.352,3.352,0,0,1,.4-1.709,2.579,2.579,0,0,1,1.155-1.052,4.219,4.219,0,0,1,1.814-.358,4.037,4.037,0,0,1,1.992.47,1.711,1.711,0,0,1,.842,1.634,3.135,3.135,0,0,1-.82,2.261,3.367,3.367,0,0,1-2.538.858" transform="translate(36.454 9.91)" fill="#0090df"/>
        <path id="Tracé_53" data-name="Tracé 53" d="M57.521,14.376a4.027,4.027,0,0,1,1.992.47,1.711,1.711,0,0,1,.844,1.634,3.139,3.139,0,0,1-.821,2.261A3.365,3.365,0,0,1,57,19.6a4.027,4.027,0,0,1-2.038-.47A1.73,1.73,0,0,1,54.15,17.5a3.352,3.352,0,0,1,.4-1.709,2.583,2.583,0,0,1,1.157-1.052,4.179,4.179,0,0,1,1.812-.358m1.732,6.835-3.6,16.908H49.88l3.567-16.908h5.806m-1.732-9.456a6.808,6.808,0,0,0-2.938.612,5.179,5.179,0,0,0-2.3,2.1,5.93,5.93,0,0,0-.757,3.025,5.023,5.023,0,0,0,.269,1.678,2.63,2.63,0,0,0-.916,1.5L47.316,37.578a2.62,2.62,0,0,0,2.564,3.163h5.776a2.62,2.62,0,0,0,2.564-2.076l3.6-16.908a2.609,2.609,0,0,0-.122-1.5,5.816,5.816,0,0,0,1.285-3.777,4.329,4.329,0,0,0-2.188-3.923,6.621,6.621,0,0,0-3.27-.8m1.732,12.078h0Z" transform="translate(35.333 8.789)" fill="#fff"/>
        <path id="Tracé_54" data-name="Tracé 54" d="M61.653,34.5a7.549,7.549,0,0,1-3.626-.806,5.412,5.412,0,0,1-2.277-2.307,7.639,7.639,0,0,1-.783-3.574,13.784,13.784,0,0,1,.589-4.014,10.594,10.594,0,0,1,1.791-3.476,8.562,8.562,0,0,1,3.022-2.433,9.6,9.6,0,0,1,4.283-.9,7.014,7.014,0,0,1,4.47,1.285A4.141,4.141,0,0,1,70.741,21.7a5.9,5.9,0,0,1-.537,2.545,5.159,5.159,0,0,1-1.65,1.963,8.114,8.114,0,0,1-2.828,1.262,16.549,16.549,0,0,1-4.074.44h-.881v.238a2.115,2.115,0,0,0,.612,1.672,2.713,2.713,0,0,0,1.835.537,7.549,7.549,0,0,0,2.433-.388,17.264,17.264,0,0,0,2.462-1.075v4.089a16.179,16.179,0,0,1-2.8,1.1,13.469,13.469,0,0,1-3.656.418m-.3-10.208h.433a5.09,5.09,0,0,0,2.059-.343,2.393,2.393,0,0,0,1.089-.867,1.935,1.935,0,0,0,.329-1.043,1.163,1.163,0,0,0-.3-.807,1.238,1.238,0,0,0-.956-.327,1.8,1.8,0,0,0-1.239.521,4.259,4.259,0,0,0-.94,1.307,5.272,5.272,0,0,0-.477,1.559" transform="translate(41.096 12.706)" fill="#0090df"/>
        <path id="Tracé_55" data-name="Tracé 55" d="M65.774,18.116a7.028,7.028,0,0,1,4.47,1.283,4.146,4.146,0,0,1,1.618,3.418,5.9,5.9,0,0,1-.537,2.545,5.172,5.172,0,0,1-1.65,1.963,8.113,8.113,0,0,1-2.828,1.26,16.549,16.549,0,0,1-4.074.44h-.881v.239a2.105,2.105,0,0,0,.612,1.671,2.71,2.71,0,0,0,1.835.538,7.548,7.548,0,0,0,2.433-.388,17.35,17.35,0,0,0,2.462-1.075V34.1a16.18,16.18,0,0,1-2.8,1.1,13.469,13.469,0,0,1-3.656.418,7.549,7.549,0,0,1-3.626-.806,5.421,5.421,0,0,1-2.277-2.307,7.623,7.623,0,0,1-.783-3.574,13.725,13.725,0,0,1,.589-4.014,10.62,10.62,0,0,1,1.791-3.478,8.6,8.6,0,0,1,3.022-2.433,9.621,9.621,0,0,1,4.283-.895m-3.3,7.3h.432a5.09,5.09,0,0,0,2.06-.344,2.4,2.4,0,0,0,1.089-.865,1.951,1.951,0,0,0,.329-1.045,1.153,1.153,0,0,0-.3-.806,1.235,1.235,0,0,0-.954-.329,1.8,1.8,0,0,0-1.239.523,4.222,4.222,0,0,0-.94,1.305,5.283,5.283,0,0,0-.477,1.561m3.3-9.92a12.237,12.237,0,0,0-5.44,1.164,11.223,11.223,0,0,0-3.93,3.172A13.256,13.256,0,0,0,54.17,24.16a16.405,16.405,0,0,0-.7,4.776,10.234,10.234,0,0,0,1.082,4.789,8,8,0,0,0,3.354,3.4,10.141,10.141,0,0,0,4.872,1.122,15.87,15.87,0,0,0,4.383-.521,18.868,18.868,0,0,0,3.261-1.285A2.62,2.62,0,0,0,71.857,34.1V30.011a2.625,2.625,0,0,0-.171-.935,7.671,7.671,0,0,0,2.012-2.6,8.525,8.525,0,0,0,.786-3.661,6.751,6.751,0,0,0-2.613-5.472,9.562,9.562,0,0,0-6.1-1.851" transform="translate(39.974 11.585)" fill="#fff"/>
        <path id="Tracé_56" data-name="Tracé 56" d="M78,36.621a8.162,8.162,0,0,1-5.947-2.186q-2.247-2.186-2.246-6.513a16.928,16.928,0,0,1,.5-4.112,14.494,14.494,0,0,1,1.506-3.754,12.064,12.064,0,0,1,2.531-3.074,11.221,11.221,0,0,1,3.581-2.074A13.688,13.688,0,0,1,82.6,14.16a15.916,15.916,0,0,1,3.626.4,10.666,10.666,0,0,1,3.06,1.194l-2.2,4.612a11.372,11.372,0,0,0-2.1-.949,7.637,7.637,0,0,0-2.471-.395,5.621,5.621,0,0,0-3.216.881,6.77,6.77,0,0,0-2.1,2.246,10.444,10.444,0,0,0-1.141,2.88,12.455,12.455,0,0,0-.351,2.8,6,6,0,0,0,.358,2.246,2.563,2.563,0,0,0,1.052,1.285,3.318,3.318,0,0,0,1.709.411,7.772,7.772,0,0,0,.993-.052q.4-.052.993-.157l.76-3.462H78.165l1-4.551h9.1L85.776,35.411a27.3,27.3,0,0,1-3.448.858A23.747,23.747,0,0,1,78,36.621" transform="translate(52.191 10.587)" fill="#0090df"/>
        <path id="Tracé_57" data-name="Tracé 57" d="M83.72,15.281a15.917,15.917,0,0,1,3.626.4,10.636,10.636,0,0,1,3.06,1.194l-2.2,4.61a11.487,11.487,0,0,0-2.1-.947,7.59,7.59,0,0,0-2.471-.395,5.621,5.621,0,0,0-3.216.881,6.77,6.77,0,0,0-2.1,2.246,10.444,10.444,0,0,0-1.141,2.88,12.444,12.444,0,0,0-.351,2.8A6,6,0,0,0,77.2,31.2a2.571,2.571,0,0,0,1.052,1.285,3.318,3.318,0,0,0,1.709.409,8.153,8.153,0,0,0,.993-.051q.4-.052.993-.157l.76-3.462H79.288l1-4.553h9.1L86.9,36.533a27.6,27.6,0,0,1-3.448.858,23.747,23.747,0,0,1-4.327.351,8.162,8.162,0,0,1-5.947-2.186Q70.93,33.37,70.93,29.041a16.914,16.914,0,0,1,.5-4.11,14.494,14.494,0,0,1,1.506-3.754A12.064,12.064,0,0,1,75.467,18.1a11.17,11.17,0,0,1,3.581-2.074,13.646,13.646,0,0,1,4.671-.746m0-2.621a16.314,16.314,0,0,0-5.564.9,13.791,13.791,0,0,0-4.411,2.564,14.7,14.7,0,0,0-3.078,3.738,17.223,17.223,0,0,0-1.781,4.43,19.681,19.681,0,0,0-.577,4.745c0,3.607,1.022,6.43,3.039,8.394a10.724,10.724,0,0,0,7.775,2.929,26.509,26.509,0,0,0,4.808-.395,30.3,30.3,0,0,0,3.775-.942,2.621,2.621,0,0,0,1.758-1.956l2.492-11.863a2.626,2.626,0,0,0-.53-2.192,2.6,2.6,0,0,0-.741-.627L92.772,18a2.621,2.621,0,0,0-1.026-3.378,13.291,13.291,0,0,0-3.806-1.494,18.64,18.64,0,0,0-4.221-.472" transform="translate(51.071 9.465)" fill="#fff"/>
        <path id="Tracé_58" data-name="Tracé 58" d="M86.414,34.373a4.51,4.51,0,0,1-2.552-.657,3.873,3.873,0,0,1-1.449-1.746,6.057,6.057,0,0,1-.461-2.387,14.821,14.821,0,0,1,.1-1.739c.068-.592.159-1.152.267-1.679l1.9-9h5.774L88.07,26.374q-.089.388-.187.986a6.976,6.976,0,0,0-.1,1.118,1.275,1.275,0,0,0,.336.963,1.117,1.117,0,0,0,.8.32,1.552,1.552,0,0,0,1.022-.461,4.5,4.5,0,0,0,.97-1.433,11.382,11.382,0,0,0,.767-2.478l1.732-8.223h5.776L95.622,34.074H91l.194-2.358h-.121a6.138,6.138,0,0,1-1.223,1.529,4.19,4.19,0,0,1-1.515.858,6.272,6.272,0,0,1-1.917.269" transform="translate(61.271 12.834)" fill="#0090df"/>
        <path id="Tracé_59" data-name="Tracé 59" d="M100.309,18.287h.009m-.009,0L96.743,35.2H92.117l.194-2.358h-.119a6.142,6.142,0,0,1-1.225,1.529,4.2,4.2,0,0,1-1.513.858,6.292,6.292,0,0,1-1.919.269,4.514,4.514,0,0,1-2.552-.657,3.859,3.859,0,0,1-1.447-1.746,6.033,6.033,0,0,1-.463-2.387,14.818,14.818,0,0,1,.1-1.739q.1-.889.269-1.679l1.894-9h5.776L89.191,27.5q-.089.388-.187.984a7.013,7.013,0,0,0-.1,1.12,1.275,1.275,0,0,0,.336.963,1.117,1.117,0,0,0,.8.32,1.547,1.547,0,0,0,1.022-.463,4.474,4.474,0,0,0,.97-1.431A11.375,11.375,0,0,0,92.8,26.51l1.73-8.223h5.776m-9.193,0h.009m9.193-2.621H94.533a2.618,2.618,0,0,0-1.706.631,2.6,2.6,0,0,0-1.7-.631H85.341a2.622,2.622,0,0,0-2.566,2.081l-1.894,9c-.126.606-.229,1.248-.308,1.914a17.74,17.74,0,0,0-.122,2.045,8.672,8.672,0,0,0,.671,3.411,6.463,6.463,0,0,0,2.407,2.9,7.084,7.084,0,0,0,4.006,1.1,8.948,8.948,0,0,0,2.714-.393c.208-.066.412-.142.612-.227a2.6,2.6,0,0,0,1.257.322h4.626a2.622,2.622,0,0,0,2.566-2.08l3.534-16.758a2.585,2.585,0,0,0,.094-.692,2.619,2.619,0,0,0-2.618-2.621m-.009,5.243h0Z" transform="translate(60.149 11.713)" fill="#fff"/>
        <path id="Tracé_60" data-name="Tracé 60" d="M99.414,34.5a7.549,7.549,0,0,1-3.626-.806,5.412,5.412,0,0,1-2.277-2.307,7.639,7.639,0,0,1-.783-3.574,13.783,13.783,0,0,1,.589-4.014,10.594,10.594,0,0,1,1.791-3.476,8.562,8.562,0,0,1,3.022-2.433,9.6,9.6,0,0,1,4.283-.9,7.014,7.014,0,0,1,4.47,1.285A4.141,4.141,0,0,1,108.5,21.7a5.9,5.9,0,0,1-.537,2.545,5.159,5.159,0,0,1-1.65,1.963,8.114,8.114,0,0,1-2.828,1.262,16.549,16.549,0,0,1-4.074.44h-.881v.238a2.115,2.115,0,0,0,.612,1.672,2.713,2.713,0,0,0,1.835.537,7.549,7.549,0,0,0,2.433-.388,17.264,17.264,0,0,0,2.462-1.075v4.089a16.18,16.18,0,0,1-2.8,1.1,13.469,13.469,0,0,1-3.656.418m-.3-10.208h.433a5.09,5.09,0,0,0,2.059-.343,2.393,2.393,0,0,0,1.089-.867,1.935,1.935,0,0,0,.329-1.043,1.163,1.163,0,0,0-.3-.807,1.239,1.239,0,0,0-.956-.327,1.8,1.8,0,0,0-1.239.521,4.259,4.259,0,0,0-.94,1.307,5.272,5.272,0,0,0-.477,1.559" transform="translate(69.327 12.706)" fill="#0090df"/>
        <path id="Tracé_61" data-name="Tracé 61" d="M103.535,18.116a7.028,7.028,0,0,1,4.47,1.283,4.146,4.146,0,0,1,1.618,3.418,5.9,5.9,0,0,1-.537,2.545,5.171,5.171,0,0,1-1.65,1.963,8.113,8.113,0,0,1-2.828,1.26,16.549,16.549,0,0,1-4.074.44h-.881v.239a2.105,2.105,0,0,0,.612,1.671,2.71,2.71,0,0,0,1.835.538,7.549,7.549,0,0,0,2.433-.388A17.35,17.35,0,0,0,107,30.011V34.1a16.18,16.18,0,0,1-2.8,1.1,13.469,13.469,0,0,1-3.656.418,7.544,7.544,0,0,1-3.626-.806,5.421,5.421,0,0,1-2.277-2.307,7.623,7.623,0,0,1-.783-3.574,13.725,13.725,0,0,1,.589-4.014,10.62,10.62,0,0,1,1.791-3.478,8.6,8.6,0,0,1,3.022-2.433,9.621,9.621,0,0,1,4.283-.895m-3.3,7.3h.432a5.09,5.09,0,0,0,2.06-.344,2.4,2.4,0,0,0,1.089-.865,1.95,1.95,0,0,0,.329-1.045,1.153,1.153,0,0,0-.3-.806,1.235,1.235,0,0,0-.954-.329,1.8,1.8,0,0,0-1.239.523,4.222,4.222,0,0,0-.94,1.305,5.282,5.282,0,0,0-.477,1.561m3.3-9.92a12.237,12.237,0,0,0-5.44,1.164,11.223,11.223,0,0,0-3.93,3.172,13.256,13.256,0,0,0-2.233,4.329,16.4,16.4,0,0,0-.7,4.776,10.234,10.234,0,0,0,1.082,4.789,8,8,0,0,0,3.354,3.4,10.141,10.141,0,0,0,4.872,1.122,15.87,15.87,0,0,0,4.383-.521,18.868,18.868,0,0,0,3.261-1.285,2.62,2.62,0,0,0,1.438-2.338V30.011a2.625,2.625,0,0,0-.171-.935,7.671,7.671,0,0,0,2.012-2.6,8.525,8.525,0,0,0,.786-3.661,6.751,6.751,0,0,0-2.613-5.472,9.562,9.562,0,0,0-6.1-1.851" transform="translate(68.206 11.585)" fill="#fff"/>
        <path id="Tracé_62" data-name="Tracé 62" d="M107.716,34.5a17.044,17.044,0,0,1-3.008-.239,9.277,9.277,0,0,1-2.305-.7V28.919a11.136,11.136,0,0,0,2.552,1.045,9.685,9.685,0,0,0,2.389.3,6.017,6.017,0,0,0,.835-.068,2.109,2.109,0,0,0,.835-.29.753.753,0,0,0,.358-.687,1.225,1.225,0,0,0-.157-.619,2.219,2.219,0,0,0-.648-.627,16.5,16.5,0,0,0-1.522-.918,7.43,7.43,0,0,1-1.716-1.269,4.432,4.432,0,0,1-.993-1.529,5.349,5.349,0,0,1-.322-1.919,5.206,5.206,0,0,1,.746-2.8,4.891,4.891,0,0,1,2.291-1.872,9.805,9.805,0,0,1,3.9-.673,11.066,11.066,0,0,1,3.044.4,10.558,10.558,0,0,1,2.672,1.187l-1.807,3.759a10.47,10.47,0,0,0-1.9-.977,5.322,5.322,0,0,0-1.949-.425,1.258,1.258,0,0,0-.828.253.936.936,0,0,0-.306.76.8.8,0,0,0,.2.523,2.314,2.314,0,0,0,.65.486q.448.246,1.148.6a7.37,7.37,0,0,1,1.889,1.283,4.808,4.808,0,0,1,1.1,1.582,4.877,4.877,0,0,1,.365,1.91,6.029,6.029,0,0,1-.926,3.455A5.525,5.525,0,0,1,111.7,33.83a10.747,10.747,0,0,1-3.985.671" transform="translate(76.561 12.706)" fill="#0090df"/>
        <path id="Tracé_63" data-name="Tracé 63" d="M112.076,18.116a11.068,11.068,0,0,1,3.044.395,10.648,10.648,0,0,1,2.672,1.187l-1.807,3.761a10.361,10.361,0,0,0-1.9-.977,5.327,5.327,0,0,0-1.949-.426,1.258,1.258,0,0,0-.828.255.933.933,0,0,0-.306.76.8.8,0,0,0,.2.523,2.281,2.281,0,0,0,.65.484c.3.164.682.367,1.148.6a7.373,7.373,0,0,1,1.889,1.285,4.638,4.638,0,0,1,1.47,3.492,6.029,6.029,0,0,1-.926,3.455,5.522,5.522,0,0,1-2.611,2.036,10.71,10.71,0,0,1-3.985.673,17.044,17.044,0,0,1-3.008-.239,9.351,9.351,0,0,1-2.305-.7V30.041a11.136,11.136,0,0,0,2.552,1.045,9.679,9.679,0,0,0,2.387.3,5.991,5.991,0,0,0,.837-.066,2.136,2.136,0,0,0,.835-.29.755.755,0,0,0,.358-.687,1.236,1.236,0,0,0-.157-.62,2.217,2.217,0,0,0-.648-.626,16.5,16.5,0,0,0-1.522-.918,7.43,7.43,0,0,1-1.716-1.269,4.4,4.4,0,0,1-.993-1.531,5.332,5.332,0,0,1-.322-1.917,5.2,5.2,0,0,1,.746-2.8,4.894,4.894,0,0,1,2.291-1.873,9.838,9.838,0,0,1,3.9-.671m0-2.621a12.239,12.239,0,0,0-4.948.89,7.465,7.465,0,0,0-3.473,2.894,7.794,7.794,0,0,0-1.141,4.18,7.987,7.987,0,0,0,.493,2.85,6.857,6.857,0,0,0,.542,1.11h-.024a2.622,2.622,0,0,0-2.621,2.621v4.642a2.621,2.621,0,0,0,1.506,2.372,12,12,0,0,0,2.954.909,19.638,19.638,0,0,0,3.474.281,13.373,13.373,0,0,0,4.955-.858,8.124,8.124,0,0,0,3.812-3,8.6,8.6,0,0,0,1.377-4.925,7.472,7.472,0,0,0-.573-2.931,7.009,7.009,0,0,0-.624-1.16,2.627,2.627,0,0,0,.566-.774l1.805-3.761a2.623,2.623,0,0,0-.987-3.366,13.364,13.364,0,0,0-3.329-1.475,13.7,13.7,0,0,0-3.763-.5" transform="translate(75.439 11.585)" fill="#fff"/>
        <path id="Tracé_64" data-name="Tracé 64" d="M116.495,34.5a17.044,17.044,0,0,1-3.008-.239,9.277,9.277,0,0,1-2.305-.7V28.919a11.136,11.136,0,0,0,2.552,1.045,9.685,9.685,0,0,0,2.389.3,6.017,6.017,0,0,0,.835-.068,2.109,2.109,0,0,0,.835-.29.753.753,0,0,0,.358-.687,1.225,1.225,0,0,0-.157-.619,2.218,2.218,0,0,0-.648-.627,16.5,16.5,0,0,0-1.522-.918,7.43,7.43,0,0,1-1.716-1.269,4.433,4.433,0,0,1-.993-1.529,5.349,5.349,0,0,1-.322-1.919,5.206,5.206,0,0,1,.746-2.8,4.891,4.891,0,0,1,2.291-1.872,9.805,9.805,0,0,1,3.9-.673,11.066,11.066,0,0,1,3.044.4,10.558,10.558,0,0,1,2.672,1.187l-1.807,3.759a10.47,10.47,0,0,0-1.9-.977,5.322,5.322,0,0,0-1.949-.425,1.258,1.258,0,0,0-.828.253.936.936,0,0,0-.306.76.8.8,0,0,0,.2.523,2.314,2.314,0,0,0,.65.486q.448.246,1.148.6a7.37,7.37,0,0,1,1.889,1.283,4.808,4.808,0,0,1,1.1,1.582,4.877,4.877,0,0,1,.365,1.91,6.029,6.029,0,0,1-.926,3.455,5.525,5.525,0,0,1-2.611,2.038,10.747,10.747,0,0,1-3.985.671" transform="translate(83.124 12.706)" fill="#0090df"/>
        <path id="Tracé_65" data-name="Tracé 65" d="M120.855,18.116a11.068,11.068,0,0,1,3.044.395,10.648,10.648,0,0,1,2.672,1.187l-1.807,3.761a10.36,10.36,0,0,0-1.9-.977,5.327,5.327,0,0,0-1.949-.426,1.258,1.258,0,0,0-.828.255.933.933,0,0,0-.306.76.8.8,0,0,0,.2.523,2.281,2.281,0,0,0,.65.484c.3.164.682.367,1.148.6a7.373,7.373,0,0,1,1.889,1.285,4.638,4.638,0,0,1,1.47,3.492,6.029,6.029,0,0,1-.926,3.455A5.522,5.522,0,0,1,121.6,34.95a10.71,10.71,0,0,1-3.985.673,17.044,17.044,0,0,1-3.008-.239,9.351,9.351,0,0,1-2.305-.7V30.041a11.136,11.136,0,0,0,2.552,1.045,9.679,9.679,0,0,0,2.387.3,5.991,5.991,0,0,0,.837-.066,2.136,2.136,0,0,0,.835-.29.755.755,0,0,0,.358-.687,1.236,1.236,0,0,0-.157-.62,2.217,2.217,0,0,0-.648-.626,16.5,16.5,0,0,0-1.522-.918,7.43,7.43,0,0,1-1.716-1.269,4.4,4.4,0,0,1-.993-1.531,5.332,5.332,0,0,1-.322-1.917,5.2,5.2,0,0,1,.746-2.8,4.894,4.894,0,0,1,2.291-1.873,9.838,9.838,0,0,1,3.9-.671m0-2.621a12.239,12.239,0,0,0-4.948.89,7.465,7.465,0,0,0-3.473,2.894,7.794,7.794,0,0,0-1.141,4.18,7.987,7.987,0,0,0,.493,2.85,6.857,6.857,0,0,0,.542,1.11H112.3a2.622,2.622,0,0,0-2.621,2.621v4.642a2.621,2.621,0,0,0,1.506,2.372,12,12,0,0,0,2.954.909,19.638,19.638,0,0,0,3.474.281,13.373,13.373,0,0,0,4.955-.858,8.124,8.124,0,0,0,3.812-3,8.6,8.6,0,0,0,1.377-4.925,7.472,7.472,0,0,0-.573-2.931,7.009,7.009,0,0,0-.624-1.16,2.627,2.627,0,0,0,.566-.774l1.805-3.761a2.623,2.623,0,0,0-.987-3.366,13.365,13.365,0,0,0-3.329-1.475,13.7,13.7,0,0,0-3.763-.5" transform="translate(82.003 11.585)" fill="#fff"/>
        <path id="Tracé_66" data-name="Tracé 66" d="M119.892,34.2l3.567-16.908h4.612l-.269,2.821h.119a8.248,8.248,0,0,1,1.433-1.873,4.3,4.3,0,0,1,1.618-.963A6.661,6.661,0,0,1,133,17c.218,0,.449.012.694.037a2.9,2.9,0,0,1,.5.082l-1.255,5.717a4.576,4.576,0,0,0-.806-.231,5.16,5.16,0,0,0-1.029-.1,3.619,3.619,0,0,0-1.262.217,2.969,2.969,0,0,0-1.073.7,4.526,4.526,0,0,0-.867,1.314,10.217,10.217,0,0,0-.648,2.036L125.668,34.2Z" transform="translate(89.636 12.706)" fill="#0090df"/>
        <path id="Tracé_67" data-name="Tracé 67" d="M134.116,18.116c.218,0,.451.012.694.037a2.836,2.836,0,0,1,.5.082l-1.253,5.717a4.576,4.576,0,0,0-.806-.231,5.178,5.178,0,0,0-1.031-.1,3.609,3.609,0,0,0-1.26.217,2.938,2.938,0,0,0-1.075.7,4.489,4.489,0,0,0-.865,1.314,10.325,10.325,0,0,0-.65,2.036l-1.582,7.433h-5.776l3.567-16.908h4.612l-.269,2.821h.121a8.2,8.2,0,0,1,1.431-1.873,4.273,4.273,0,0,1,1.62-.963,6.649,6.649,0,0,1,2.022-.283m-4.925.3h.009m4.916-2.92a9.308,9.308,0,0,0-2.819.407,6.985,6.985,0,0,0-.725.28,2.6,2.6,0,0,0-1.372-.388h-4.621a2.619,2.619,0,0,0-2.564,2.08l-3.567,16.908a2.62,2.62,0,0,0,2.564,3.163h5.776a2.62,2.62,0,0,0,2.564-2.076l1.582-7.431a7.767,7.767,0,0,1,.468-1.489,1.938,1.938,0,0,1,.337-.554.416.416,0,0,1,.124-.094,1,1,0,0,1,.357-.056,2.567,2.567,0,0,1,.509.045,2.137,2.137,0,0,1,.336.087,2.621,2.621,0,0,0,3.553-1.865L137.87,18.8a2.621,2.621,0,0,0-1.732-3.05,4.9,4.9,0,0,0-1.063-.2,9.306,9.306,0,0,0-.959-.051" transform="translate(88.514 11.585)" fill="#fff"/>
        <path id="Tracé_68" data-name="Tracé 68" d="M37.056,16.244a9.317,9.317,0,0,0-9.317,9.317c0,5.145,6.52,14.844,9.317,14.844,3.1,0,9.317-9.7,9.317-14.844a9.317,9.317,0,0,0-9.317-9.317m0,12.6a3.993,3.993,0,1,1,3.993-3.993,3.993,3.993,0,0,1-3.993,3.993" transform="translate(20.739 12.145)" fill="#0090df"/>
        <path id="Tracé_69" data-name="Tracé 69" d="M38.177,17.365a9.317,9.317,0,0,1,9.317,9.317c0,5.145-6.218,14.844-9.317,14.844-2.8,0-9.317-9.7-9.317-14.844a9.317,9.317,0,0,1,9.317-9.317m0,12.6a3.993,3.993,0,1,0-3.993-3.993,3.993,3.993,0,0,0,3.993,3.993m0-15.225A11.951,11.951,0,0,0,26.239,26.682c0,5.482,6.812,17.466,11.938,17.466,5.25,0,11.938-11.84,11.938-17.466A11.951,11.951,0,0,0,38.177,14.744m0,12.6a1.372,1.372,0,1,1,1.372-1.372,1.373,1.373,0,0,1-1.372,1.372" transform="translate(19.617 11.023)" fill="#fff"/>
      </g>
    </g>
  </g>
</svg>
