<svg xmlns="http://www.w3.org/2000/svg" xmlns:xlink="http://www.w3.org/1999/xlink" width="524.67" height="87.332" viewBox="0 0 524.67 87.332">
  <defs>
    <clipPath id="clip-path">
      <rect id="Rectangle_14" data-name="Rectangle 14" width="524.67" height="87.332" fill="none"/>
    </clipPath>
  </defs>
  <g id="Groupe_7" data-name="Groupe 7" transform="translate(0 0)">
    <g id="Groupe_6" data-name="Groupe 6" transform="translate(0 0)" clip-path="url(#clip-path)">
      <path id="Tracé_25" data-name="Tracé 25" d="M48.286,63.488a3.3,3.3,0,0,1-3.235-3.993l1.922-9.018L41.882,61.562a3.313,3.313,0,0,1-3.01,1.926H24.948a3.307,3.307,0,0,1-3.306-3.306V54.919l-1.247,5.941a3.314,3.314,0,0,1-3.235,2.627H4.056A3.312,3.312,0,0,1,.82,59.5L12.457,4.47a3.3,3.3,0,0,1,3.235-2.618H35.186a3.31,3.31,0,0,1,3.306,3.306V29.8L50.472,3.774a3.309,3.309,0,0,1,3-1.922h19.8a3.308,3.308,0,0,1,3.231,4L64.722,60.874a3.3,3.3,0,0,1-3.231,2.614Z" transform="translate(2.556 6.313)" fill="#0090df"/>
      <path id="Tracé_26" data-name="Tracé 26" d="M75.832,7.713h.022m-.022,0L64.05,62.742H50.841l4.4-20.667q1.243-5.759,2.182-9.445c.63-2.459,1.142-4.421,1.556-5.889s.714-2.631.89-3.482h-.3L41.43,62.742H27.5V23.259h-.3q-.6,3.874-1.168,7.356c-.375,2.323-.74,4.474-1.075,6.457s-.666,3.8-.992,5.457L19.714,62.742H6.61L18.246,7.713H37.741V46.782h.3L56.033,7.713h19.8M75.854,1.1H56.033a6.612,6.612,0,0,0-6,3.848L44.353,17.273V7.713A6.611,6.611,0,0,0,37.741,1.1H18.246a6.613,6.613,0,0,0-6.47,5.245L.144,61.371A6.613,6.613,0,0,0,6.61,69.353h13.1a6.611,6.611,0,0,0,3.9-1.269A6.568,6.568,0,0,0,27.5,69.353H41.43a6.6,6.6,0,0,0,4.7-1.97,6.627,6.627,0,0,0,4.707,1.97H64.05a6.613,6.613,0,0,0,6.466-5.227l11.7-54.645a6.507,6.507,0,0,0,.242-1.767,6.606,6.606,0,0,0-6.6-6.611m-.022,13.223h0Z" transform="translate(0.001 3.757)" fill="#161b4b"/>
      <path id="Tracé_27" data-name="Tracé 27" d="M37.279,53.916A3.306,3.306,0,0,1,34,51.029L28.543,8.385a3.309,3.309,0,0,1,3.279-3.724H46.315a3.306,3.306,0,0,1,3.3,3.187l.458,12.425L56.329,6.592a3.314,3.314,0,0,1,3.006-1.931H74.92a3.3,3.3,0,0,1,2.9,4.879L54.79,52.179a3.3,3.3,0,0,1-2.909,1.737Z" transform="translate(97.174 15.885)" fill="#0090df"/>
      <path id="Tracé_28" data-name="Tracé 28" d="M77.472,10.522,54.438,53.166h-14.6L34.375,10.522H48.867l.789,21.452c.026.652.044,1.318.057,2s.009,1.322-.018,1.939-.062,1.2-.115,1.75h.3a16.051,16.051,0,0,1,.524-1.675c.225-.617.467-1.23.714-1.847s.48-1.133.679-1.56L61.891,10.522Zm0-6.611H61.891a6.608,6.608,0,0,0-6.012,3.861l-.573,1.247a6.615,6.615,0,0,0-6.439-5.108H34.375a6.606,6.606,0,0,0-6.554,7.449l5.457,42.648a6.612,6.612,0,0,0,6.558,5.77h14.6a6.613,6.613,0,0,0,5.818-3.469L83.29,13.665a6.614,6.614,0,0,0-5.818-9.754m0,13.223h0Z" transform="translate(94.618 13.329)" fill="#161b4b"/>
      <path id="Tracé_29" data-name="Tracé 29" d="M40.779,67.243a3.3,3.3,0,0,1-3.235-3.989l9-42.643a3.307,3.307,0,0,1,3.235-2.623h.908a7.937,7.937,0,0,1-2.446-6.065A11.758,11.758,0,0,1,49.7,5.951a9.817,9.817,0,0,1,4.359-3.98A13.868,13.868,0,0,1,60.049.75a13.482,13.482,0,0,1,6.633,1.6,7.6,7.6,0,0,1,3.826,7.008,11.12,11.12,0,0,1-2.988,7.987,8.756,8.756,0,0,1-1.336,1.15,3.335,3.335,0,0,1,.8.714,3.3,3.3,0,0,1,.661,2.768L58.577,64.625a3.3,3.3,0,0,1-3.231,2.618Z" transform="translate(127.696 2.557)" fill="#0090df"/>
      <path id="Tracé_30" data-name="Tracé 30" d="M62.6,6.611A10.157,10.157,0,0,1,67.629,7.8a4.315,4.315,0,0,1,2.129,4.121,7.917,7.917,0,0,1-2.072,5.7q-2.069,2.162-6.4,2.164A10.157,10.157,0,0,1,56.152,18.6a4.364,4.364,0,0,1-2.05-4.121,8.455,8.455,0,0,1,1.014-4.311,6.516,6.516,0,0,1,2.918-2.653,10.541,10.541,0,0,1,4.571-.9m4.368,17.238L57.9,66.493H43.334l9-42.643H66.972M62.6,0A17.17,17.17,0,0,0,55.2,1.543a13.036,13.036,0,0,0-5.8,5.307,14.956,14.956,0,0,0-1.908,7.63,12.668,12.668,0,0,0,.679,4.231,6.633,6.633,0,0,0-2.31,3.773L36.868,65.126A6.607,6.607,0,0,0,43.334,73.1H57.9a6.609,6.609,0,0,0,6.466-5.236l9.071-42.643a6.579,6.579,0,0,0-.309-3.782,14.668,14.668,0,0,0,3.24-9.525,10.918,10.918,0,0,0-5.518-9.9A16.7,16.7,0,0,0,62.6,0m4.368,30.461h0Z" transform="translate(125.141 0.002)" fill="#161b4b"/>
      <path id="Tracé_31" data-name="Tracé 31" d="M63.851,55.252a22.376,22.376,0,0,1-10.715-2.429,17.014,17.014,0,0,1-7.1-7.193,22.6,22.6,0,0,1-2.354-10.547A38.167,38.167,0,0,1,45.313,24a30.166,30.166,0,0,1,5.078-9.847,24.966,24.966,0,0,1,8.767-7.065,27.578,27.578,0,0,1,12.257-2.6c5.536,0,10.018,1.331,13.329,3.949a13.839,13.839,0,0,1,5.338,11.213,18.243,18.243,0,0,1-1.67,7.823,16.342,16.342,0,0,1-5.188,6.2,18.694,18.694,0,0,1-1.692,1.111,2.963,2.963,0,0,1,.331.176,3.3,3.3,0,0,1,1.6,2.83V48.1a3.3,3.3,0,0,1-1.812,2.949,43.92,43.92,0,0,1-7.656,3.015,36.658,36.658,0,0,1-10.137,1.186M69.541,21a1.763,1.763,0,0,0-.626.405,6.164,6.164,0,0,0-.78.864,2.77,2.77,0,0,0,1.2-.882A2.592,2.592,0,0,0,69.541,21" transform="translate(148.85 15.302)" fill="#0090df"/>
      <path id="Tracé_32" data-name="Tracé 32" d="M73.971,10.351q7.187,0,11.275,3.235a10.457,10.457,0,0,1,4.081,8.621,14.891,14.891,0,0,1-1.353,6.417,13.043,13.043,0,0,1-4.161,4.95,20.461,20.461,0,0,1-7.131,3.178,41.737,41.737,0,0,1-10.274,1.111H64.186v.6a5.309,5.309,0,0,0,1.543,4.214,6.835,6.835,0,0,0,4.628,1.358,19.037,19.037,0,0,0,6.135-.978,43.755,43.755,0,0,0,6.21-2.711V50.663a40.807,40.807,0,0,1-7.074,2.786A33.968,33.968,0,0,1,66.408,54.5a19.026,19.026,0,0,1-9.146-2.032,13.672,13.672,0,0,1-5.743-5.818,19.225,19.225,0,0,1-1.975-9.014A34.615,34.615,0,0,1,51.03,27.515a26.784,26.784,0,0,1,4.518-8.771,21.69,21.69,0,0,1,7.621-6.135,24.264,24.264,0,0,1,10.8-2.257M65.654,28.757h1.089a12.838,12.838,0,0,0,5.2-.868,6.058,6.058,0,0,0,2.746-2.182,4.919,4.919,0,0,0,.829-2.636,2.907,2.907,0,0,0-.754-2.032,3.114,3.114,0,0,0-2.407-.829,4.532,4.532,0,0,0-3.125,1.318,10.6,10.6,0,0,0-2.371,3.292,13.324,13.324,0,0,0-1.2,3.936M73.971,3.74A30.862,30.862,0,0,0,60.25,6.675a28.3,28.3,0,0,0-9.913,8A33.431,33.431,0,0,0,44.7,25.593a41.374,41.374,0,0,0-1.772,12.046,25.81,25.81,0,0,0,2.728,12.077,20.183,20.183,0,0,0,8.458,8.568,25.575,25.575,0,0,0,12.288,2.83A40.024,40.024,0,0,0,77.462,59.8a47.587,47.587,0,0,0,8.225-3.24,6.608,6.608,0,0,0,3.627-5.9V40.349a6.62,6.62,0,0,0-.432-2.358,19.347,19.347,0,0,0,5.073-6.55,21.5,21.5,0,0,0,1.983-9.234,17.027,17.027,0,0,0-6.589-13.8c-3.905-3.1-9.08-4.668-15.378-4.668" transform="translate(146.298 12.746)" fill="#161b4b"/>
      <path id="Tracé_33" data-name="Tracé 33" d="M82.492,64.913c-7.087,0-12.91-2.173-17.3-6.453-4.421-4.3-6.664-10.627-6.664-18.8A46.141,46.141,0,0,1,59.882,28.5a40.125,40.125,0,0,1,4.148-10.323,33.811,33.811,0,0,1,7.07-8.59,31.561,31.561,0,0,1,10.08-5.849,37.836,37.836,0,0,1,12.905-2.08,43.644,43.644,0,0,1,9.9,1.1,30.425,30.425,0,0,1,8.657,3.389,3.311,3.311,0,0,1,1.3,4.262L108.4,22.04a3.284,3.284,0,0,1-2.014,1.737,3.18,3.18,0,0,1-.97.15,3.32,3.32,0,0,1-1.675-.454,25.4,25.4,0,0,0-4.681-2.116,15.956,15.956,0,0,0-5.161-.82,10.876,10.876,0,0,0-6.263,1.657,13.584,13.584,0,0,0-3.522,3.411,3.237,3.237,0,0,1,1.318-.273h22.959a3.306,3.306,0,0,1,3.235,3.984l-6.285,29.919A3.31,3.31,0,0,1,103.12,61.7a73.246,73.246,0,0,1-9.106,2.274,63.876,63.876,0,0,1-11.521.939M80.218,42.042a8.255,8.255,0,0,0,.476,1.807,3.252,3.252,0,0,0,1.278,1.644,5.148,5.148,0,0,0,2.627.577,15.857,15.857,0,0,0,2.067-.106c.062,0,.128-.018.194-.026l.555-2.517H82.907a3.316,3.316,0,0,1-2.578-1.234c-.04-.048-.075-.1-.11-.145m1.441-11.658a23.117,23.117,0,0,0-.824,2.746,31.861,31.861,0,0,0-.688,4.139Z" transform="translate(199.426 5.641)" fill="#0090df"/>
      <path id="Tracé_34" data-name="Tracé 34" d="M96.64,7.516a40.142,40.142,0,0,1,9.146,1.018,26.823,26.823,0,0,1,7.718,3.01l-5.536,11.627a28.97,28.97,0,0,0-5.285-2.389,19.141,19.141,0,0,0-6.232-1,14.177,14.177,0,0,0-8.11,2.221,17.074,17.074,0,0,0-5.289,5.664,26.339,26.339,0,0,0-2.878,7.264,31.385,31.385,0,0,0-.886,7.057,15.13,15.13,0,0,0,.9,5.664,6.484,6.484,0,0,0,2.653,3.24,8.368,8.368,0,0,0,4.311,1.031,20.563,20.563,0,0,0,2.5-.128q1-.132,2.5-.4l1.917-8.731H85.462L87.984,31.19h22.959l-6.285,29.923a69.62,69.62,0,0,1-8.7,2.164,59.89,59.89,0,0,1-10.913.886q-9.335,0-15-5.514T64.385,42.217a42.657,42.657,0,0,1,1.261-10.367,36.552,36.552,0,0,1,3.8-9.467,30.427,30.427,0,0,1,6.382-7.753A28.172,28.172,0,0,1,84.859,9.4,34.415,34.415,0,0,1,96.64,7.516M96.64.9A41.145,41.145,0,0,0,82.606,3.184,34.781,34.781,0,0,0,71.482,9.65a37.061,37.061,0,0,0-7.762,9.428,43.438,43.438,0,0,0-4.491,11.173,49.636,49.636,0,0,0-1.455,11.967c0,9.1,2.578,16.216,7.665,21.17,5.033,4.9,11.632,7.387,19.609,7.387a66.857,66.857,0,0,0,12.125-1,77.2,77.2,0,0,0,9.52-2.376,6.611,6.611,0,0,0,4.434-4.932l6.285-29.919a6.622,6.622,0,0,0-1.336-5.527,6.547,6.547,0,0,0-1.869-1.582l5.263-11.059a6.611,6.611,0,0,0-2.587-8.52,33.519,33.519,0,0,0-9.6-3.768A46.983,46.983,0,0,0,96.64.9" transform="translate(196.87 3.086)" fill="#161b4b"/>
      <path id="Tracé_35" data-name="Tracé 35" d="M85.225,54.669a14.677,14.677,0,0,1-8.269-2.208A13.115,13.115,0,0,1,72.1,46.595a18.618,18.618,0,0,1-1.428-7.312,40.23,40.23,0,0,1,.287-4.773q.278-2.387.723-4.522l4.782-22.7a3.311,3.311,0,0,1,3.235-2.627H94.261A3.306,3.306,0,0,1,97.5,8.645L92.639,31.865c-.15.666-.3,1.424-.441,2.34A14.62,14.62,0,0,0,92,36.03a8.576,8.576,0,0,0,1.578-2.477,25.815,25.815,0,0,0,1.693-5.518L99.642,7.288a3.314,3.314,0,0,1,3.235-2.627h14.567A3.306,3.306,0,0,1,120.68,8.65l-9,42.643a3.3,3.3,0,0,1-3.235,2.623H96.782a3.31,3.31,0,0,1-2.433-1.067,2.652,2.652,0,0,1-.3-.37,14.037,14.037,0,0,1-2.984,1.358,19.261,19.261,0,0,1-5.844.833" transform="translate(240.804 15.885)" fill="#0090df"/>
      <path id="Tracé_36" data-name="Tracé 36" d="M120,10.522h.022m-.022,0-9,42.643H99.338l.489-5.946h-.3a15.49,15.49,0,0,1-3.09,3.857,10.585,10.585,0,0,1-3.817,2.164,15.869,15.869,0,0,1-4.84.679,11.385,11.385,0,0,1-6.435-1.657,9.732,9.732,0,0,1-3.649-4.4,15.214,15.214,0,0,1-1.168-6.021,37.373,37.373,0,0,1,.264-4.386q.264-2.241.679-4.236l4.778-22.695H96.816L91.959,33.746q-.225.978-.472,2.481a17.7,17.7,0,0,0-.242,2.825,3.215,3.215,0,0,0,.846,2.429,2.817,2.817,0,0,0,2.014.807,3.915,3.915,0,0,0,2.578-1.164A11.361,11.361,0,0,0,99.13,37.51a28.687,28.687,0,0,0,1.939-6.25l4.364-20.738H120m-23.184,0h.022m23.184-6.611H105.433a6.6,6.6,0,0,0-4.3,1.591,6.557,6.557,0,0,0-4.293-1.591H82.249a6.613,6.613,0,0,0-6.47,5.249L71,31.855c-.317,1.529-.577,3.147-.776,4.826a44.75,44.75,0,0,0-.309,5.157,21.869,21.869,0,0,0,1.693,8.6,16.3,16.3,0,0,0,6.069,7.321,17.866,17.866,0,0,0,10.1,2.768,22.566,22.566,0,0,0,6.845-.992c.524-.167,1.04-.357,1.543-.573a6.568,6.568,0,0,0,3.169.811H111a6.613,6.613,0,0,0,6.47-5.245l8.912-42.264a6.517,6.517,0,0,0,.238-1.745,6.606,6.606,0,0,0-6.6-6.611M120,17.134h0Z" transform="translate(238.248 13.329)" fill="#161b4b"/>
      <path id="Tracé_37" data-name="Tracé 37" d="M101.609,55.252a22.4,22.4,0,0,1-10.715-2.429,17,17,0,0,1-7.1-7.2,22.565,22.565,0,0,1-2.349-10.543A37.952,37.952,0,0,1,83.075,24a30.083,30.083,0,0,1,5.069-9.842,25.054,25.054,0,0,1,8.771-7.07,27.584,27.584,0,0,1,12.262-2.6c5.536,0,10.018,1.331,13.324,3.949a13.833,13.833,0,0,1,5.338,11.213,18.257,18.257,0,0,1-1.67,7.823,16.342,16.342,0,0,1-5.188,6.2,19.325,19.325,0,0,1-1.693,1.111,2.968,2.968,0,0,1,.331.176,3.3,3.3,0,0,1,1.6,2.83V48.1a3.3,3.3,0,0,1-1.812,2.949,44.087,44.087,0,0,1-7.652,3.015,36.67,36.67,0,0,1-10.142,1.186M107.3,21a1.763,1.763,0,0,0-.626.405,6.163,6.163,0,0,0-.78.864,2.961,2.961,0,0,0,1.2-.877A2.627,2.627,0,0,0,107.3,21" transform="translate(277.527 15.302)" fill="#0090df"/>
      <path id="Tracé_38" data-name="Tracé 38" d="M111.732,10.351q7.187,0,11.275,3.235a10.457,10.457,0,0,1,4.081,8.621,14.891,14.891,0,0,1-1.353,6.417,13.043,13.043,0,0,1-4.161,4.95,20.461,20.461,0,0,1-7.131,3.178,41.737,41.737,0,0,1-10.274,1.111h-2.221v.6a5.309,5.309,0,0,0,1.543,4.214,6.835,6.835,0,0,0,4.628,1.358,19.037,19.037,0,0,0,6.135-.978,43.755,43.755,0,0,0,6.21-2.711V50.663a40.806,40.806,0,0,1-7.074,2.786,33.969,33.969,0,0,1-9.221,1.053,19.038,19.038,0,0,1-9.146-2.032,13.672,13.672,0,0,1-5.743-5.818,19.225,19.225,0,0,1-1.975-9.014,34.615,34.615,0,0,1,1.485-10.124,26.784,26.784,0,0,1,4.518-8.771,21.69,21.69,0,0,1,7.621-6.135,24.264,24.264,0,0,1,10.8-2.257m-8.317,18.406H104.5a12.838,12.838,0,0,0,5.2-.868,6.058,6.058,0,0,0,2.746-2.182,4.919,4.919,0,0,0,.829-2.636,2.907,2.907,0,0,0-.754-2.032,3.114,3.114,0,0,0-2.407-.829,4.531,4.531,0,0,0-3.125,1.318,10.6,10.6,0,0,0-2.371,3.292,13.325,13.325,0,0,0-1.2,3.936M111.732,3.74A30.863,30.863,0,0,0,98.011,6.675a28.3,28.3,0,0,0-9.913,8,33.432,33.432,0,0,0-5.633,10.918,41.374,41.374,0,0,0-1.772,12.046,25.81,25.81,0,0,0,2.728,12.077,20.183,20.183,0,0,0,8.458,8.568,25.575,25.575,0,0,0,12.288,2.83A40.025,40.025,0,0,0,115.223,59.8a47.586,47.586,0,0,0,8.225-3.24,6.608,6.608,0,0,0,3.628-5.9V40.349a6.621,6.621,0,0,0-.432-2.358,19.347,19.347,0,0,0,5.073-6.55,21.5,21.5,0,0,0,1.983-9.234,17.027,17.027,0,0,0-6.589-13.8c-3.905-3.1-9.08-4.668-15.378-4.668" transform="translate(274.972 12.746)" fill="#161b4b"/>
      <path id="Tracé_39" data-name="Tracé 39" d="M107.827,55.252a46.157,46.157,0,0,1-8.176-.657,26.786,26.786,0,0,1-6.633-2.027,3.313,3.313,0,0,1-1.9-2.993V37.869a3.3,3.3,0,0,1,1.618-2.838,3.252,3.252,0,0,1,1.688-.467,3.293,3.293,0,0,1,1.578.4,25.02,25.02,0,0,0,5.673,2.336,21.224,21.224,0,0,0,5.21.652c.242,0,.507-.013.789-.04q-1.124-.747-3.138-1.851a22.2,22.2,0,0,1-5.091-3.782,14.469,14.469,0,0,1-3.235-4.994,16.871,16.871,0,0,1-1.027-6.012,16.429,16.429,0,0,1,2.38-8.806A15.647,15.647,0,0,1,104.83,6.46a28.135,28.135,0,0,1,11.16-1.97,31.392,31.392,0,0,1,8.586,1.124,30.4,30.4,0,0,1,7.568,3.359,3.309,3.309,0,0,1,1.243,4.245L128.834,22.7a3.306,3.306,0,0,1-4.809,1.327l-.031-.018a16.348,16.348,0,0,1,1.393,1.212A15,15,0,0,1,130.1,36.4a18.463,18.463,0,0,1-2.9,10.569,17.279,17.279,0,0,1-8.1,6.356,30.515,30.515,0,0,1-11.27,1.926" transform="translate(310.492 15.302)" fill="#0090df"/>
      <path id="Tracé_40" data-name="Tracé 40" d="M118.547,10.351a27.913,27.913,0,0,1,7.678,1,26.855,26.855,0,0,1,6.739,2.993l-4.557,9.485a26.129,26.129,0,0,0-4.8-2.464,13.434,13.434,0,0,0-4.914-1.075,3.173,3.173,0,0,0-2.089.644,2.347,2.347,0,0,0-.771,1.917,2.019,2.019,0,0,0,.507,1.318,5.753,5.753,0,0,0,1.64,1.221c.754.414,1.719.926,2.9,1.525a18.594,18.594,0,0,1,4.765,3.24,11.7,11.7,0,0,1,3.707,8.806,15.206,15.206,0,0,1-2.336,8.714,13.927,13.927,0,0,1-6.585,5.135,27.011,27.011,0,0,1-10.049,1.7,42.984,42.984,0,0,1-7.585-.6,23.583,23.583,0,0,1-5.814-1.767V40.424a28.085,28.085,0,0,0,6.435,2.636,24.412,24.412,0,0,0,6.021.749,15.109,15.109,0,0,0,2.111-.167,5.388,5.388,0,0,0,2.107-.732,1.9,1.9,0,0,0,.9-1.732,3.116,3.116,0,0,0-.4-1.565,5.592,5.592,0,0,0-1.635-1.578,41.622,41.622,0,0,0-3.839-2.314,18.867,18.867,0,0,1-4.328-3.2,11.093,11.093,0,0,1-2.5-3.861,13.448,13.448,0,0,1-.811-4.835,13.119,13.119,0,0,1,1.882-7.057,12.341,12.341,0,0,1,5.778-4.725,24.812,24.812,0,0,1,9.842-1.693m0-6.611a30.867,30.867,0,0,0-12.478,2.243,18.844,18.844,0,0,0-8.758,7.295,19.683,19.683,0,0,0-2.878,10.547,20.144,20.144,0,0,0,1.243,7.189,17.293,17.293,0,0,0,1.366,2.8H96.98a6.612,6.612,0,0,0-6.611,6.611V52.131a6.609,6.609,0,0,0,3.8,5.981,30.249,30.249,0,0,0,7.453,2.292,49.442,49.442,0,0,0,8.758.71,33.726,33.726,0,0,0,12.5-2.164,20.488,20.488,0,0,0,9.613-7.572,21.7,21.7,0,0,0,3.473-12.421,18.847,18.847,0,0,0-1.446-7.392,17.676,17.676,0,0,0-1.574-2.927,6.624,6.624,0,0,0,1.428-1.953l4.553-9.485a6.614,6.614,0,0,0-2.49-8.489,33.707,33.707,0,0,0-8.4-3.72,34.548,34.548,0,0,0-9.49-1.252" transform="translate(307.94 12.746)" fill="#161b4b"/>
      <path id="Tracé_41" data-name="Tracé 41" d="M116.6,55.252a46.14,46.14,0,0,1-8.172-.657,26.67,26.67,0,0,1-6.633-2.027,3.313,3.313,0,0,1-1.9-2.993V37.869a3.3,3.3,0,0,1,1.618-2.838,3.293,3.293,0,0,1,3.266-.066,25.076,25.076,0,0,0,5.668,2.336,21.251,21.251,0,0,0,5.21.652q.364,0,.793-.04c-.749-.5-1.8-1.115-3.138-1.851a22.2,22.2,0,0,1-5.1-3.782,14.538,14.538,0,0,1-3.231-5,16.778,16.778,0,0,1-1.027-6.008,16.429,16.429,0,0,1,2.38-8.806A15.613,15.613,0,0,1,113.6,6.46a28.158,28.158,0,0,1,11.164-1.97,31.359,31.359,0,0,1,8.582,1.124,30.243,30.243,0,0,1,7.568,3.359,3.306,3.306,0,0,1,1.247,4.245L137.613,22.7a3.3,3.3,0,0,1-4.8,1.327L132.764,24a17.278,17.278,0,0,1,1.4,1.221A15.5,15.5,0,0,1,137.7,30.3a15.66,15.66,0,0,1,1.181,6.1,18.53,18.53,0,0,1-2.9,10.569,17.307,17.307,0,0,1-8.106,6.356,30.466,30.466,0,0,1-11.27,1.926" transform="translate(340.408 15.302)" fill="#0090df"/>
      <path id="Tracé_42" data-name="Tracé 42" d="M127.325,10.351a27.913,27.913,0,0,1,7.678,1,26.855,26.855,0,0,1,6.739,2.993l-4.557,9.485a26.129,26.129,0,0,0-4.8-2.464,13.435,13.435,0,0,0-4.914-1.075,3.173,3.173,0,0,0-2.089.644,2.347,2.347,0,0,0-.771,1.917,2.019,2.019,0,0,0,.507,1.318,5.752,5.752,0,0,0,1.64,1.221c.754.414,1.719.926,2.9,1.525a18.594,18.594,0,0,1,4.765,3.24,11.7,11.7,0,0,1,3.707,8.806,15.206,15.206,0,0,1-2.336,8.714,13.927,13.927,0,0,1-6.585,5.135,27.011,27.011,0,0,1-10.049,1.7,42.984,42.984,0,0,1-7.585-.6,23.583,23.583,0,0,1-5.814-1.767V40.424a28.085,28.085,0,0,0,6.435,2.636,24.412,24.412,0,0,0,6.021.749,15.109,15.109,0,0,0,2.111-.167,5.389,5.389,0,0,0,2.107-.732,1.9,1.9,0,0,0,.9-1.732,3.116,3.116,0,0,0-.4-1.565,5.592,5.592,0,0,0-1.635-1.578,41.621,41.621,0,0,0-3.839-2.314,18.867,18.867,0,0,1-4.328-3.2,11.093,11.093,0,0,1-2.5-3.861,13.447,13.447,0,0,1-.811-4.835,13.119,13.119,0,0,1,1.882-7.057,12.342,12.342,0,0,1,5.778-4.725,24.812,24.812,0,0,1,9.842-1.693m0-6.611a30.867,30.867,0,0,0-12.478,2.243,18.844,18.844,0,0,0-8.758,7.295,19.683,19.683,0,0,0-2.878,10.547,20.144,20.144,0,0,0,1.243,7.189,17.3,17.3,0,0,0,1.366,2.8h-.062a6.612,6.612,0,0,0-6.611,6.611V52.131a6.609,6.609,0,0,0,3.8,5.981A30.272,30.272,0,0,0,110.4,60.4a49.529,49.529,0,0,0,8.762.71,33.726,33.726,0,0,0,12.5-2.164,20.488,20.488,0,0,0,9.613-7.572,21.7,21.7,0,0,0,3.473-12.421,18.847,18.847,0,0,0-1.446-7.392,17.675,17.675,0,0,0-1.574-2.927,6.624,6.624,0,0,0,1.428-1.953L147.7,17.2a6.614,6.614,0,0,0-2.49-8.489,33.707,33.707,0,0,0-8.4-3.72,34.548,34.548,0,0,0-9.49-1.252" transform="translate(337.852 12.746)" fill="#161b4b"/>
      <path id="Tracé_43" data-name="Tracé 43" d="M111.912,54.5a3.3,3.3,0,0,1-3.235-3.989l9-42.643a3.307,3.307,0,0,1,3.235-2.623H132.54a3.306,3.306,0,0,1,2.442,1.084,3.245,3.245,0,0,1,.476.67,13.659,13.659,0,0,1,3.389-1.635,20.238,20.238,0,0,1,6.113-.873,19.507,19.507,0,0,1,2.094.115,9.105,9.105,0,0,1,1.961.357A3.3,3.3,0,0,1,151.2,8.805l-3.16,14.417a3.307,3.307,0,0,1-3.231,2.6,3.25,3.25,0,0,1-1.252-.247,8.335,8.335,0,0,0-1.437-.4,9.634,9.634,0,0,0-1.939-.181,5.885,5.885,0,0,0-2.041.344,4.145,4.145,0,0,0-1.512,1,8.161,8.161,0,0,0-1.516,2.354,22.837,22.837,0,0,0-1.415,4.478L129.71,51.88a3.306,3.306,0,0,1-3.231,2.618Z" transform="translate(370.088 15.302)" fill="#0090df"/>
      <path id="Tracé_44" data-name="Tracé 44" d="M147.515,10.351c.551,0,1.137.031,1.75.093a7.152,7.152,0,0,1,1.261.207l-3.16,14.417a11.54,11.54,0,0,0-2.032-.582,12.74,12.74,0,0,0-2.6-.247,9.1,9.1,0,0,0-3.178.547,7.409,7.409,0,0,0-2.711,1.767,11.321,11.321,0,0,0-2.182,3.315A26.036,26.036,0,0,0,133.023,35l-3.989,18.745H114.467l9-42.643h11.632l-.679,7.114h.3a20.67,20.67,0,0,1,3.61-4.725,10.777,10.777,0,0,1,4.086-2.429,16.77,16.77,0,0,1,5.1-.714m-12.421.754h.022m12.4-7.365a23.338,23.338,0,0,0-7.109,1.027,16.671,16.671,0,0,0-1.829.705,6.556,6.556,0,0,0-3.46-.978H123.463A6.6,6.6,0,0,0,117,9.739l-9,42.643a6.607,6.607,0,0,0,6.466,7.978h14.567a6.609,6.609,0,0,0,6.466-5.236l3.989-18.741a19.594,19.594,0,0,1,1.181-3.755,4.886,4.886,0,0,1,.851-1.4,1,1,0,0,1,.313-.238,2.518,2.518,0,0,1,.9-.141,6.851,6.851,0,0,1,1.283.11,5.634,5.634,0,0,1,.846.225,6.61,6.61,0,0,0,8.961-4.7l3.16-14.413a6.614,6.614,0,0,0-4.364-7.691,12.417,12.417,0,0,0-2.684-.511,23.469,23.469,0,0,0-2.42-.128" transform="translate(367.533 12.746)" fill="#161b4b"/>
      <path id="Tracé_45" data-name="Tracé 45" d="M43.261,71.285c-10.248,0-26.807-27.424-26.807-40.744a26.8,26.8,0,0,1,53.609,0c0,13.677-16.286,40.744-26.8,40.744m0-49.29a6.766,6.766,0,1,0,6.766,6.766A6.773,6.773,0,0,0,43.261,22" transform="translate(56.068 12.743)" fill="#0090df"/>
      <path id="Tracé_46" data-name="Tracé 46" d="M45.813,9.6a23.5,23.5,0,0,1,23.5,23.5c0,12.976-15.682,37.438-23.5,37.438-7.052,0-23.5-24.462-23.5-37.438a23.5,23.5,0,0,1,23.5-23.5m0,31.788A10.071,10.071,0,1,0,35.742,31.317,10.071,10.071,0,0,0,45.813,41.388m0-38.4A30.14,30.14,0,0,0,15.7,33.1c0,13.827,17.181,44.049,30.108,44.049,13.24,0,30.108-29.861,30.108-44.049A30.14,30.14,0,0,0,45.813,2.989m0,31.788a3.46,3.46,0,1,1,3.46-3.46,3.463,3.463,0,0,1-3.46,3.46" transform="translate(53.516 10.187)" fill="#161b4b"/>
    </g>
  </g>
</svg>
